<svg xmlns="http://www.w3.org/2000/svg" viewBox="0 0 128 128" width="128" height="128">
  <!-- Heart shape -->
  <path d="M64 108 C64 108, 16 76, 16 46 C16 28, 30 16, 44 16 C54 16, 60 22, 64 30 C68 22, 74 16, 84 16 C98 16, 112 28, 112 46 C112 76, 64 108, 64 108Z" fill="none" stroke="#E74C3C" stroke-width="7" stroke-linejoin="round"/>
  <!-- ECG/Pulse line across the heart -->
  <polyline points="20,62 40,62 48,62 54,42 60,78 66,38 72,74 78,62 88,62 108,62" fill="none" stroke="#E74C3C" stroke-width="5" stroke-linecap="round" stroke-linejoin="round"/>
</svg>
